<mxfile host="app.diagrams.net" agent="Mozilla/5.0 (X11; Ubuntu; Linux x86_64; rv:143.0) Gecko/20100101 Firefox/143.0" scale="1" border="0" version="28.2.3">
  <diagram name="Página-1" id="ZoH1qGiTkQQqBr2M1ZjS">
    <mxGraphModel dx="2741" dy="2360" grid="1" gridSize="10" guides="1" tooltips="1" connect="1" arrows="1" fold="1" page="1" pageScale="1" pageWidth="827" pageHeight="1169" math="0" shadow="0">
      <root>
        <mxCell id="0" />
        <mxCell id="1" parent="0" />
        <mxCell id="RVpFAnCIKUoagwl025eZ-24" value="" style="rounded=0;whiteSpace=wrap;html=1;" vertex="1" parent="1">
          <mxGeometry x="-330" y="-20" width="1380" height="980" as="geometry" />
        </mxCell>
        <mxCell id="7PJYwHTWWEtQcOT2h8YD-53" value="" style="endArrow=open;html=1;rounded=0;dashed=1;entryX=0.25;entryY=0;entryDx=0;entryDy=0;exitX=0.75;exitY=1;exitDx=0;exitDy=0;endFill=0;" parent="1" edge="1" source="7PJYwHTWWEtQcOT2h8YD-40">
          <mxGeometry width="50" height="50" relative="1" as="geometry">
            <mxPoint x="435" y="164" as="sourcePoint" />
            <mxPoint x="232.00000000000023" y="163.6249999999999" as="targetPoint" />
            <Array as="points" />
          </mxGeometry>
        </mxCell>
        <mxCell id="7PJYwHTWWEtQcOT2h8YD-6" value="" style="endArrow=none;dashed=1;html=1;dashPattern=1 3;strokeWidth=2;rounded=0;exitX=0.5;exitY=0;exitDx=0;exitDy=0;entryX=0.5;entryY=1;entryDx=0;entryDy=0;" parent="1" source="7PJYwHTWWEtQcOT2h8YD-3" target="7PJYwHTWWEtQcOT2h8YD-2" edge="1">
          <mxGeometry width="50" height="50" relative="1" as="geometry">
            <mxPoint x="20" y="460" as="sourcePoint" />
            <mxPoint x="70" y="410" as="targetPoint" />
          </mxGeometry>
        </mxCell>
        <mxCell id="7PJYwHTWWEtQcOT2h8YD-15" value="" style="rounded=0;whiteSpace=wrap;html=1;rotation=90;" parent="1" vertex="1">
          <mxGeometry x="-47.18" y="149.69" width="84.37" height="10" as="geometry" />
        </mxCell>
        <mxCell id="7PJYwHTWWEtQcOT2h8YD-26" value="" style="endArrow=open;html=1;rounded=0;exitX=0.36;exitY=0.79;exitDx=0;exitDy=0;exitPerimeter=0;endFill=0;dashed=1;" parent="1" edge="1">
          <mxGeometry width="50" height="50" relative="1" as="geometry">
            <mxPoint x="224.10000000000014" y="168.6799999999996" as="sourcePoint" />
            <mxPoint y="167" as="targetPoint" />
            <Array as="points" />
          </mxGeometry>
        </mxCell>
        <mxCell id="7PJYwHTWWEtQcOT2h8YD-14" value="" style="endArrow=none;dashed=1;html=1;dashPattern=1 3;strokeWidth=2;rounded=0;entryX=0.5;entryY=1;entryDx=0;entryDy=0;exitX=0.5;exitY=0;exitDx=0;exitDy=0;" parent="1" source="7PJYwHTWWEtQcOT2h8YD-13" edge="1">
          <mxGeometry width="50" height="50" relative="1" as="geometry">
            <mxPoint x="228" y="1020" as="sourcePoint" />
            <mxPoint x="226" y="51" as="targetPoint" />
          </mxGeometry>
        </mxCell>
        <mxCell id="7PJYwHTWWEtQcOT2h8YD-18" value="" style="rounded=0;whiteSpace=wrap;html=1;rotation=90;" parent="1" vertex="1">
          <mxGeometry x="204.7" y="146.81" width="44.62" height="10" as="geometry" />
        </mxCell>
        <mxCell id="7PJYwHTWWEtQcOT2h8YD-2" value=":Interface da homepage" style="rounded=1;whiteSpace=wrap;html=1;" parent="1" vertex="1">
          <mxGeometry x="-60" y="30" width="110" height="40" as="geometry" />
        </mxCell>
        <mxCell id="7PJYwHTWWEtQcOT2h8YD-3" value=":interface da homepage" style="rounded=1;whiteSpace=wrap;html=1;" parent="1" vertex="1">
          <mxGeometry x="-58" y="873" width="110" height="40" as="geometry" />
        </mxCell>
        <mxCell id="7PJYwHTWWEtQcOT2h8YD-7" value=":Participante" style="shape=umlActor;verticalLabelPosition=bottom;verticalAlign=top;html=1;outlineConnect=0;" parent="1" vertex="1">
          <mxGeometry x="-254" y="10" width="30" height="60" as="geometry" />
        </mxCell>
        <mxCell id="7PJYwHTWWEtQcOT2h8YD-8" value="Participante" style="shape=umlActor;verticalLabelPosition=bottom;verticalAlign=top;html=1;outlineConnect=0;" parent="1" vertex="1">
          <mxGeometry x="-256" y="854" width="30" height="60" as="geometry" />
        </mxCell>
        <mxCell id="7PJYwHTWWEtQcOT2h8YD-9" value="" style="endArrow=none;dashed=1;html=1;dashPattern=1 3;strokeWidth=2;rounded=0;exitX=0.5;exitY=0.5;exitDx=0;exitDy=0;exitPerimeter=0;entryX=0.5;entryY=0.5;entryDx=0;entryDy=0;entryPerimeter=0;" parent="1" source="7PJYwHTWWEtQcOT2h8YD-7" target="7PJYwHTWWEtQcOT2h8YD-8" edge="1">
          <mxGeometry width="50" height="50" relative="1" as="geometry">
            <mxPoint x="-174" y="390" as="sourcePoint" />
            <mxPoint x="-124" y="340" as="targetPoint" />
          </mxGeometry>
        </mxCell>
        <mxCell id="7PJYwHTWWEtQcOT2h8YD-11" value="1.ExibirMeusEvento(&lt;span style=&quot;color: light-dark(rgb(0, 0, 0), rgb(255, 255, 255)); background-color: transparent;&quot;&gt;)&lt;/span&gt;" style="text;html=1;align=center;verticalAlign=middle;whiteSpace=wrap;rounded=0;" parent="1" vertex="1">
          <mxGeometry x="-180" y="100" width="60" height="30" as="geometry" />
        </mxCell>
        <mxCell id="7PJYwHTWWEtQcOT2h8YD-12" value=":Controller" style="rounded=1;whiteSpace=wrap;html=1;" parent="1" vertex="1">
          <mxGeometry x="171" y="30" width="110" height="40" as="geometry" />
        </mxCell>
        <mxCell id="7PJYwHTWWEtQcOT2h8YD-13" value=":Controller" style="rounded=1;whiteSpace=wrap;html=1;" parent="1" vertex="1">
          <mxGeometry x="173" y="873" width="110" height="40" as="geometry" />
        </mxCell>
        <mxCell id="7PJYwHTWWEtQcOT2h8YD-22" value="2.ExibirMeusEvento&lt;span style=&quot;background-color: transparent; color: light-dark(rgb(0, 0, 0), rgb(255, 255, 255));&quot;&gt;(user_id&lt;/span&gt;&lt;span style=&quot;background-color: transparent; color: light-dark(rgb(0, 0, 0), rgb(255, 255, 255));&quot;&gt;)&lt;/span&gt;" style="text;html=1;align=center;verticalAlign=middle;whiteSpace=wrap;rounded=0;" parent="1" vertex="1">
          <mxGeometry x="80" y="107" width="60" height="30" as="geometry" />
        </mxCell>
        <mxCell id="7PJYwHTWWEtQcOT2h8YD-10" value="" style="endArrow=classic;html=1;rounded=0;" parent="1" edge="1">
          <mxGeometry width="50" height="50" relative="1" as="geometry">
            <mxPoint x="-240" y="120" as="sourcePoint" />
            <mxPoint x="-10" y="120" as="targetPoint" />
          </mxGeometry>
        </mxCell>
        <mxCell id="7PJYwHTWWEtQcOT2h8YD-24" value="" style="endArrow=classic;html=1;rounded=0;exitX=0.194;exitY=-0.034;exitDx=0;exitDy=0;exitPerimeter=0;" parent="1" source="7PJYwHTWWEtQcOT2h8YD-15" edge="1">
          <mxGeometry width="50" height="50" relative="1" as="geometry">
            <mxPoint x="10" y="130" as="sourcePoint" />
            <mxPoint x="220" y="130" as="targetPoint" />
            <Array as="points">
              <mxPoint x="140" y="130" />
            </Array>
          </mxGeometry>
        </mxCell>
        <mxCell id="7PJYwHTWWEtQcOT2h8YD-35" value="4.Retorno com a tela da Wallet de eventos" style="text;html=1;align=center;verticalAlign=middle;whiteSpace=wrap;rounded=0;" parent="1" vertex="1">
          <mxGeometry x="20" y="174" width="180" height="30" as="geometry" />
        </mxCell>
        <mxCell id="7PJYwHTWWEtQcOT2h8YD-36" value="" style="endArrow=open;html=1;rounded=0;dashed=1;endFill=0;" parent="1" edge="1">
          <mxGeometry width="50" height="50" relative="1" as="geometry">
            <mxPoint x="-10" y="181" as="sourcePoint" />
            <mxPoint x="-240" y="181" as="targetPoint" />
            <Array as="points" />
          </mxGeometry>
        </mxCell>
        <mxCell id="7PJYwHTWWEtQcOT2h8YD-37" value="5.Exibição da Wallet de eventos" style="text;html=1;align=center;verticalAlign=middle;whiteSpace=wrap;rounded=0;" parent="1" vertex="1">
          <mxGeometry x="-217" y="175" width="200" height="30" as="geometry" />
        </mxCell>
        <mxCell id="7PJYwHTWWEtQcOT2h8YD-39" value="" style="endArrow=none;dashed=1;html=1;dashPattern=1 3;strokeWidth=2;rounded=0;exitX=0.5;exitY=0.125;exitDx=0;exitDy=0;entryX=0.5;entryY=1;entryDx=0;entryDy=0;exitPerimeter=0;" parent="1" source="7PJYwHTWWEtQcOT2h8YD-42" edge="1">
          <mxGeometry width="50" height="50" relative="1" as="geometry">
            <mxPoint x="441" y="814" as="sourcePoint" />
            <mxPoint x="439" y="69" as="targetPoint" />
          </mxGeometry>
        </mxCell>
        <mxCell id="7PJYwHTWWEtQcOT2h8YD-40" value="" style="rounded=0;whiteSpace=wrap;html=1;rotation=90;" parent="1" vertex="1">
          <mxGeometry x="940" y="150" width="50" height="10" as="geometry" />
        </mxCell>
        <mxCell id="7PJYwHTWWEtQcOT2h8YD-41" value="Evento:Event" style="rounded=1;whiteSpace=wrap;html=1;" parent="1" vertex="1">
          <mxGeometry x="384" y="30" width="110" height="40" as="geometry" />
        </mxCell>
        <mxCell id="7PJYwHTWWEtQcOT2h8YD-42" value="Evento:Event" style="rounded=1;whiteSpace=wrap;html=1;" parent="1" vertex="1">
          <mxGeometry x="386" y="873" width="110" height="40" as="geometry" />
        </mxCell>
        <mxCell id="7PJYwHTWWEtQcOT2h8YD-43" value="&lt;div&gt;3&lt;span style=&quot;background-color: transparent; color: light-dark(rgb(0, 0, 0), rgb(255, 255, 255));&quot;&gt;.ExibirMeusEventos(User&lt;/span&gt;&lt;span style=&quot;background-color: transparent; color: light-dark(rgb(0, 0, 0), rgb(255, 255, 255));&quot;&gt;_id&lt;/span&gt;&lt;span style=&quot;background-color: transparent; color: light-dark(rgb(0, 0, 0), rgb(255, 255, 255));&quot;&gt;)&lt;/span&gt;&lt;/div&gt;" style="text;html=1;align=center;verticalAlign=middle;whiteSpace=wrap;rounded=0;" parent="1" vertex="1">
          <mxGeometry x="502" y="120" width="60" height="30" as="geometry" />
        </mxCell>
        <mxCell id="7PJYwHTWWEtQcOT2h8YD-44" value="" style="endArrow=classic;html=1;rounded=0;entryX=0.25;entryY=1;entryDx=0;entryDy=0;" parent="1" edge="1" target="7PJYwHTWWEtQcOT2h8YD-40">
          <mxGeometry width="50" height="50" relative="1" as="geometry">
            <mxPoint x="230" y="141" as="sourcePoint" />
            <mxPoint x="1110" y="140" as="targetPoint" />
            <Array as="points">
              <mxPoint x="360" y="141" />
            </Array>
          </mxGeometry>
        </mxCell>
        <mxCell id="7PJYwHTWWEtQcOT2h8YD-54" value="4.Lista de eventos" style="text;html=1;align=center;verticalAlign=middle;whiteSpace=wrap;rounded=0;" parent="1" vertex="1">
          <mxGeometry x="456" y="168.75" width="140" height="30" as="geometry" />
        </mxCell>
        <mxCell id="7PJYwHTWWEtQcOT2h8YD-63" value="[Editar evento]" style="text;html=1;align=center;verticalAlign=middle;whiteSpace=wrap;rounded=0;" parent="1" vertex="1">
          <mxGeometry x="-256" y="200" width="160" height="30" as="geometry" />
        </mxCell>
        <mxCell id="7PJYwHTWWEtQcOT2h8YD-65" value="" style="endArrow=classic;html=1;rounded=0;" parent="1" edge="1">
          <mxGeometry width="50" height="50" relative="1" as="geometry">
            <mxPoint x="-240" y="245" as="sourcePoint" />
            <mxPoint x="-10" y="245" as="targetPoint" />
          </mxGeometry>
        </mxCell>
        <mxCell id="7PJYwHTWWEtQcOT2h8YD-66" value="" style="rounded=0;whiteSpace=wrap;html=1;rotation=90;" parent="1" vertex="1">
          <mxGeometry x="-89.8" y="190.31" width="169.59" height="10" as="geometry" />
        </mxCell>
        <mxCell id="7PJYwHTWWEtQcOT2h8YD-68" value="6.Editar evento(event_id)" style="text;html=1;align=center;verticalAlign=middle;whiteSpace=wrap;rounded=0;" parent="1" vertex="1">
          <mxGeometry x="-190" y="230" width="140" height="21" as="geometry" />
        </mxCell>
        <mxCell id="7PJYwHTWWEtQcOT2h8YD-73" value="alt" style="shape=umlFrame;whiteSpace=wrap;html=1;pointerEvents=0;width=40;height=15;" parent="1" vertex="1">
          <mxGeometry x="-290" y="302" width="1170" height="178" as="geometry" />
        </mxCell>
        <mxCell id="7PJYwHTWWEtQcOT2h8YD-75" value="[Participante não logado]" style="text;html=1;align=center;verticalAlign=middle;whiteSpace=wrap;rounded=0;" parent="1" vertex="1">
          <mxGeometry x="-247" y="297.37" width="160" height="30" as="geometry" />
        </mxCell>
        <mxCell id="7PJYwHTWWEtQcOT2h8YD-88" value="" style="endArrow=none;dashed=1;html=1;strokeWidth=1;rounded=0;entryX=0.942;entryY=0.931;entryDx=0;entryDy=0;entryPerimeter=0;endFill=0;startArrow=open;startFill=0;" parent="1" edge="1">
          <mxGeometry width="50" height="50" relative="1" as="geometry">
            <mxPoint x="-240" y="499" as="sourcePoint" />
            <mxPoint x="-9.315000000000055" y="499.26878" as="targetPoint" />
          </mxGeometry>
        </mxCell>
        <mxCell id="7PJYwHTWWEtQcOT2h8YD-93" value="" style="endArrow=classic;html=1;rounded=0;exitX=0.708;exitY=0.32;exitDx=0;exitDy=0;exitPerimeter=0;entryX=0.381;entryY=-0.166;entryDx=0;entryDy=0;entryPerimeter=0;" parent="1" target="7PJYwHTWWEtQcOT2h8YD-91" edge="1">
          <mxGeometry width="50" height="50" relative="1" as="geometry">
            <mxPoint x="-3.2000000000000455" y="327.36920000000015" as="sourcePoint" />
            <mxPoint x="-1.599999999999909" y="366.4166000000001" as="targetPoint" />
            <Array as="points">
              <mxPoint x="30" y="327" />
              <mxPoint x="30" y="354" />
            </Array>
          </mxGeometry>
        </mxCell>
        <mxCell id="7PJYwHTWWEtQcOT2h8YD-91" value="" style="rounded=0;whiteSpace=wrap;html=1;rotation=90;" parent="1" vertex="1">
          <mxGeometry x="-327.48" y="427.39" width="644.97" height="10" as="geometry" />
        </mxCell>
        <mxCell id="7PJYwHTWWEtQcOT2h8YD-92" value="7.IniciarCadastro&lt;span style=&quot;background-color: transparent; color: light-dark(rgb(0, 0, 0), rgb(255, 255, 255));&quot;&gt;(&lt;/span&gt;&lt;span style=&quot;background-color: transparent; color: light-dark(rgb(0, 0, 0), rgb(255, 255, 255));&quot;&gt;)&lt;/span&gt;" style="text;html=1;align=center;verticalAlign=middle;whiteSpace=wrap;rounded=0;" parent="1" vertex="1">
          <mxGeometry x="52" y="325.31" width="60" height="30" as="geometry" />
        </mxCell>
        <mxCell id="7PJYwHTWWEtQcOT2h8YD-94" value="" style="rounded=0;whiteSpace=wrap;html=1;rotation=90;" parent="1" vertex="1">
          <mxGeometry x="208.31" y="441.66" width="37.4" height="10" as="geometry" />
        </mxCell>
        <mxCell id="7PJYwHTWWEtQcOT2h8YD-103" value="" style="endArrow=none;dashed=1;html=1;strokeWidth=1;rounded=0;entryX=0.942;entryY=0.931;entryDx=0;entryDy=0;entryPerimeter=0;endFill=0;startArrow=open;startFill=0;" parent="1" edge="1">
          <mxGeometry width="50" height="50" relative="1" as="geometry">
            <mxPoint x="-242" y="366" as="sourcePoint" />
            <mxPoint x="-11" y="366" as="targetPoint" />
          </mxGeometry>
        </mxCell>
        <mxCell id="7PJYwHTWWEtQcOT2h8YD-104" value="8&lt;span style=&quot;background-color: transparent; color: light-dark(rgb(0, 0, 0), rgb(255, 255, 255));&quot;&gt;.Exibir tela de login&lt;/span&gt;" style="text;html=1;align=center;verticalAlign=middle;whiteSpace=wrap;rounded=0;" parent="1" vertex="1">
          <mxGeometry x="-215" y="338" width="170" height="40" as="geometry" />
        </mxCell>
        <mxCell id="7PJYwHTWWEtQcOT2h8YD-105" value="" style="endArrow=classic;html=1;rounded=0;" parent="1" edge="1">
          <mxGeometry width="50" height="50" relative="1" as="geometry">
            <mxPoint x="-240" y="414" as="sourcePoint" />
            <mxPoint x="-10" y="414" as="targetPoint" />
          </mxGeometry>
        </mxCell>
        <mxCell id="7PJYwHTWWEtQcOT2h8YD-106" value="9.PreencherDados(user_name,email,&lt;br&gt;fone,password,birthday)" style="text;html=1;align=center;verticalAlign=middle;whiteSpace=wrap;rounded=0;" parent="1" vertex="1">
          <mxGeometry x="-156" y="371" width="50" height="51" as="geometry" />
        </mxCell>
        <mxCell id="7PJYwHTWWEtQcOT2h8YD-108" value="10.CriarUsuario&lt;span style=&quot;background-color: transparent; color: light-dark(rgb(0, 0, 0), rgb(255, 255, 255));&quot;&gt;(&lt;/span&gt;user_name,email,&lt;br&gt;fone,password,birthday&lt;span style=&quot;background-color: transparent; color: light-dark(rgb(0, 0, 0), rgb(255, 255, 255));&quot;&gt;)&lt;/span&gt;" style="text;html=1;align=center;verticalAlign=middle;whiteSpace=wrap;rounded=0;" parent="1" vertex="1">
          <mxGeometry x="80" y="400" width="60" height="30" as="geometry" />
        </mxCell>
        <mxCell id="7PJYwHTWWEtQcOT2h8YD-109" value="" style="endArrow=classic;html=1;rounded=0;exitX=0.194;exitY=-0.034;exitDx=0;exitDy=0;exitPerimeter=0;" parent="1" edge="1">
          <mxGeometry width="50" height="50" relative="1" as="geometry">
            <mxPoint y="429" as="sourcePoint" />
            <mxPoint x="220" y="430" as="targetPoint" />
            <Array as="points">
              <mxPoint x="140" y="430" />
            </Array>
          </mxGeometry>
        </mxCell>
        <mxCell id="7PJYwHTWWEtQcOT2h8YD-112" value="" style="endArrow=none;dashed=1;html=1;dashPattern=1 3;strokeWidth=2;rounded=0;exitX=0.5;exitY=0.125;exitDx=0;exitDy=0;entryX=0.5;entryY=1;entryDx=0;entryDy=0;exitPerimeter=0;" parent="1" source="7PJYwHTWWEtQcOT2h8YD-114" edge="1">
          <mxGeometry width="50" height="50" relative="1" as="geometry">
            <mxPoint x="637" y="814" as="sourcePoint" />
            <mxPoint x="635" y="69" as="targetPoint" />
          </mxGeometry>
        </mxCell>
        <mxCell id="7PJYwHTWWEtQcOT2h8YD-113" value=":User" style="rounded=1;whiteSpace=wrap;html=1;" parent="1" vertex="1">
          <mxGeometry x="580" y="30" width="110" height="40" as="geometry" />
        </mxCell>
        <mxCell id="7PJYwHTWWEtQcOT2h8YD-114" value=":User" style="rounded=1;whiteSpace=wrap;html=1;" parent="1" vertex="1">
          <mxGeometry x="582" y="873" width="110" height="40" as="geometry" />
        </mxCell>
        <mxCell id="7PJYwHTWWEtQcOT2h8YD-115" value="" style="rounded=0;whiteSpace=wrap;html=1;rotation=90;" parent="1" vertex="1">
          <mxGeometry x="614.58" y="447.42" width="40.83" height="10" as="geometry" />
        </mxCell>
        <mxCell id="7PJYwHTWWEtQcOT2h8YD-117" value="11.CriarUsuario&lt;span style=&quot;color: light-dark(rgb(0, 0, 0), rgb(255, 255, 255)); background-color: transparent;&quot;&gt;(&lt;/span&gt;user_name,email,fone,password,birthday&lt;span style=&quot;color: light-dark(rgb(0, 0, 0), rgb(255, 255, 255)); background-color: transparent;&quot;&gt;)&lt;/span&gt;" style="text;html=1;align=center;verticalAlign=middle;whiteSpace=wrap;rounded=0;" parent="1" vertex="1">
          <mxGeometry x="295" y="415" width="288" height="30" as="geometry" />
        </mxCell>
        <mxCell id="7PJYwHTWWEtQcOT2h8YD-118" value="" style="endArrow=classic;html=1;rounded=0;exitX=0.194;exitY=-0.034;exitDx=0;exitDy=0;exitPerimeter=0;entryX=0.131;entryY=1.123;entryDx=0;entryDy=0;entryPerimeter=0;" parent="1" target="7PJYwHTWWEtQcOT2h8YD-115" edge="1">
          <mxGeometry width="50" height="50" relative="1" as="geometry">
            <mxPoint x="240" y="437.39" as="sourcePoint" />
            <mxPoint x="630" y="442" as="targetPoint" />
            <Array as="points" />
          </mxGeometry>
        </mxCell>
        <mxCell id="7PJYwHTWWEtQcOT2h8YD-119" value="" style="endArrow=open;dashed=1;html=1;rounded=0;endFill=0;strokeWidth=1;strokeColor=default;entryX=0;entryY=0.5;entryDx=0;entryDy=0;" parent="1" target="7PJYwHTWWEtQcOT2h8YD-124" edge="1">
          <mxGeometry width="50" height="50" relative="1" as="geometry">
            <mxPoint x="640" y="450" as="sourcePoint" />
            <mxPoint x="760" y="450" as="targetPoint" />
          </mxGeometry>
        </mxCell>
        <mxCell id="7PJYwHTWWEtQcOT2h8YD-121" value="&amp;lt;&amp;lt;create&amp;gt;&amp;gt;" style="text;html=1;align=center;verticalAlign=middle;whiteSpace=wrap;rounded=0;" parent="1" vertex="1">
          <mxGeometry x="670" y="428.78999999999996" width="60" height="30" as="geometry" />
        </mxCell>
        <mxCell id="7PJYwHTWWEtQcOT2h8YD-124" value="Usuario:User1" style="rounded=1;whiteSpace=wrap;html=1;" parent="1" vertex="1">
          <mxGeometry x="750" y="429.83" width="110" height="40" as="geometry" />
        </mxCell>
        <mxCell id="7PJYwHTWWEtQcOT2h8YD-125" value="Usuario:User2" style="rounded=1;whiteSpace=wrap;html=1;" parent="1" vertex="1">
          <mxGeometry x="750" y="874" width="110" height="40" as="geometry" />
        </mxCell>
        <mxCell id="7PJYwHTWWEtQcOT2h8YD-126" value="" style="endArrow=none;dashed=1;html=1;dashPattern=1 3;strokeWidth=2;rounded=0;exitX=0.5;exitY=0;exitDx=0;exitDy=0;" parent="1" source="7PJYwHTWWEtQcOT2h8YD-125" target="7PJYwHTWWEtQcOT2h8YD-124" edge="1">
          <mxGeometry width="50" height="50" relative="1" as="geometry">
            <mxPoint x="810" y="1428.857142857143" as="sourcePoint" />
            <mxPoint x="810" y="600" as="targetPoint" />
          </mxGeometry>
        </mxCell>
        <mxCell id="7PJYwHTWWEtQcOT2h8YD-128" value="" style="endArrow=open;dashed=1;html=1;rounded=0;entryX=0.75;entryY=0;entryDx=0;entryDy=0;exitX=0.637;exitY=1.133;exitDx=0;exitDy=0;exitPerimeter=0;startArrow=none;startFill=0;endFill=0;" parent="1" source="7PJYwHTWWEtQcOT2h8YD-115" target="7PJYwHTWWEtQcOT2h8YD-94" edge="1">
          <mxGeometry width="50" height="50" relative="1" as="geometry">
            <mxPoint x="690" y="340" as="sourcePoint" />
            <mxPoint x="380" y="360" as="targetPoint" />
          </mxGeometry>
        </mxCell>
        <mxCell id="7PJYwHTWWEtQcOT2h8YD-129" value="12.Confirmação da criação do usuario" style="text;html=1;align=center;verticalAlign=middle;whiteSpace=wrap;rounded=0;" parent="1" vertex="1">
          <mxGeometry x="270" y="447.41999999999996" width="288" height="30" as="geometry" />
        </mxCell>
        <mxCell id="7PJYwHTWWEtQcOT2h8YD-137" value="" style="endArrow=open;html=1;rounded=0;exitX=0.36;exitY=0.79;exitDx=0;exitDy=0;exitPerimeter=0;endFill=0;dashed=1;" parent="1" edge="1">
          <mxGeometry width="50" height="50" relative="1" as="geometry">
            <mxPoint x="222.05000000000013" y="460.3399999999996" as="sourcePoint" />
            <mxPoint x="-2.049999999999997" y="458.65999999999997" as="targetPoint" />
            <Array as="points" />
          </mxGeometry>
        </mxCell>
        <mxCell id="7PJYwHTWWEtQcOT2h8YD-138" value="13.Retorno com o login" style="text;html=1;align=center;verticalAlign=middle;whiteSpace=wrap;rounded=0;" parent="1" vertex="1">
          <mxGeometry x="17.950000000000003" y="451.65999999999997" width="180" height="30" as="geometry" />
        </mxCell>
        <mxCell id="7PJYwHTWWEtQcOT2h8YD-139" value="" style="endArrow=none;dashed=1;html=1;strokeWidth=1;rounded=0;entryX=0.942;entryY=0.931;entryDx=0;entryDy=0;entryPerimeter=0;endFill=0;startArrow=open;startFill=0;" parent="1" edge="1">
          <mxGeometry width="50" height="50" relative="1" as="geometry">
            <mxPoint x="-238.37" y="469.66" as="sourcePoint" />
            <mxPoint x="-7.3700000000000045" y="469.66" as="targetPoint" />
          </mxGeometry>
        </mxCell>
        <mxCell id="7PJYwHTWWEtQcOT2h8YD-140" value="&lt;span style=&quot;background-color: transparent; color: light-dark(rgb(0, 0, 0), rgb(255, 255, 255));&quot;&gt;14.Exibir tela anterior ao login&lt;/span&gt;" style="text;html=1;align=center;verticalAlign=middle;whiteSpace=wrap;rounded=0;" parent="1" vertex="1">
          <mxGeometry x="-211.37" y="441.66" width="170" height="40" as="geometry" />
        </mxCell>
        <mxCell id="7PJYwHTWWEtQcOT2h8YD-142" value="7.Exibe Informações do evento(event_id)" style="text;html=1;align=center;verticalAlign=middle;whiteSpace=wrap;rounded=0;" parent="1" vertex="1">
          <mxGeometry x="-234" y="502" width="220" height="20" as="geometry" />
        </mxCell>
        <mxCell id="7PJYwHTWWEtQcOT2h8YD-143" value="" style="endArrow=classic;html=1;rounded=0;exitX=0.194;exitY=-0.034;exitDx=0;exitDy=0;exitPerimeter=0;" parent="1" edge="1">
          <mxGeometry width="50" height="50" relative="1" as="geometry">
            <mxPoint y="620" as="sourcePoint" />
            <mxPoint x="220" y="621" as="targetPoint" />
            <Array as="points">
              <mxPoint x="140" y="621" />
            </Array>
          </mxGeometry>
        </mxCell>
        <mxCell id="RVpFAnCIKUoagwl025eZ-13" style="edgeStyle=orthogonalEdgeStyle;rounded=0;orthogonalLoop=1;jettySize=auto;html=1;exitX=0.087;exitY=0.231;exitDx=0;exitDy=0;entryX=0.25;entryY=1;entryDx=0;entryDy=0;exitPerimeter=0;" edge="1" parent="1">
          <mxGeometry relative="1" as="geometry">
            <mxPoint x="228.39999999999964" y="633.9612599999998" as="sourcePoint" />
            <mxPoint x="435" y="633.2075" as="targetPoint" />
          </mxGeometry>
        </mxCell>
        <mxCell id="7PJYwHTWWEtQcOT2h8YD-144" value="" style="rounded=0;whiteSpace=wrap;html=1;rotation=90;" parent="1" vertex="1">
          <mxGeometry x="171.32" y="658.69" width="108.78" height="10" as="geometry" />
        </mxCell>
        <mxCell id="7PJYwHTWWEtQcOT2h8YD-187" value="" style="endArrow=none;dashed=1;html=1;dashPattern=1 3;strokeWidth=2;rounded=0;exitX=0.5;exitY=0.125;exitDx=0;exitDy=0;entryX=0.5;entryY=1;entryDx=0;entryDy=0;exitPerimeter=0;" parent="1" source="7PJYwHTWWEtQcOT2h8YD-189" edge="1">
          <mxGeometry width="50" height="50" relative="1" as="geometry">
            <mxPoint x="967" y="814" as="sourcePoint" />
            <mxPoint x="965" y="69" as="targetPoint" />
          </mxGeometry>
        </mxCell>
        <mxCell id="7PJYwHTWWEtQcOT2h8YD-188" value=":WalletEvent" style="rounded=1;whiteSpace=wrap;html=1;" parent="1" vertex="1">
          <mxGeometry x="910" y="30" width="110" height="40" as="geometry" />
        </mxCell>
        <mxCell id="7PJYwHTWWEtQcOT2h8YD-189" value=":WalletEvent" style="rounded=1;whiteSpace=wrap;html=1;" parent="1" vertex="1">
          <mxGeometry x="912" y="873" width="110" height="40" as="geometry" />
        </mxCell>
        <mxCell id="RVpFAnCIKUoagwl025eZ-5" value="" style="endArrow=classic;html=1;rounded=0;exitX=0.194;exitY=-0.034;exitDx=0;exitDy=0;exitPerimeter=0;" edge="1" parent="1">
          <mxGeometry width="50" height="50" relative="1" as="geometry">
            <mxPoint x="-237" y="589" as="sourcePoint" />
            <mxPoint x="-17" y="590" as="targetPoint" />
            <Array as="points">
              <mxPoint x="-97" y="590" />
            </Array>
          </mxGeometry>
        </mxCell>
        <mxCell id="RVpFAnCIKUoagwl025eZ-7" value="&lt;div&gt;8. Edita as informações desejadas(event_name,ead,address,&lt;/div&gt;&lt;div&gt;event_date,buy_time_limit,capacity,&lt;/div&gt;&lt;div&gt;description,participant)&lt;/div&gt;" style="text;html=1;align=center;verticalAlign=middle;whiteSpace=wrap;rounded=0;" vertex="1" parent="1">
          <mxGeometry x="-235" y="540" width="230" height="40" as="geometry" />
        </mxCell>
        <mxCell id="RVpFAnCIKUoagwl025eZ-9" value="9. Envia alterações feitas (event_id,(event_name,ead,address,&lt;div&gt;event_date,buy_time_limit,capacity,&lt;/div&gt;&lt;div&gt;description,participant)&lt;/div&gt;" style="text;html=1;align=center;verticalAlign=middle;whiteSpace=wrap;rounded=0;" vertex="1" parent="1">
          <mxGeometry x="5" y="560" width="210" height="55" as="geometry" />
        </mxCell>
        <mxCell id="RVpFAnCIKUoagwl025eZ-11" value="" style="rounded=0;whiteSpace=wrap;html=1;rotation=90;" vertex="1" parent="1">
          <mxGeometry x="419.58500000000004" y="635.415" width="40.83" height="10" as="geometry" />
        </mxCell>
        <mxCell id="RVpFAnCIKUoagwl025eZ-15" value="10. Executa as alterações feitas (event_id,(event_name,ead,address,&lt;div&gt;event_date,buy_time_limit,capacity,&lt;/div&gt;&lt;div&gt;description,participant)&lt;/div&gt;" style="text;html=1;align=center;verticalAlign=middle;whiteSpace=wrap;rounded=0;" vertex="1" parent="1">
          <mxGeometry x="230.71" y="573" width="210" height="55" as="geometry" />
        </mxCell>
        <mxCell id="RVpFAnCIKUoagwl025eZ-16" value="" style="endArrow=open;dashed=1;html=1;rounded=0;exitX=0.75;exitY=1;exitDx=0;exitDy=0;startArrow=none;startFill=0;endFill=0;" edge="1" parent="1" source="RVpFAnCIKUoagwl025eZ-11">
          <mxGeometry width="50" height="50" relative="1" as="geometry">
            <mxPoint x="443" y="673" as="sourcePoint" />
            <mxPoint x="232" y="650" as="targetPoint" />
          </mxGeometry>
        </mxCell>
        <mxCell id="RVpFAnCIKUoagwl025eZ-17" value="11. Confirma as alterações" style="text;html=1;align=center;verticalAlign=middle;whiteSpace=wrap;rounded=0;" vertex="1" parent="1">
          <mxGeometry x="240.71" y="650" width="190" height="30" as="geometry" />
        </mxCell>
        <mxCell id="RVpFAnCIKUoagwl025eZ-18" value="" style="endArrow=open;dashed=1;html=1;rounded=0;startArrow=none;startFill=0;endFill=0;entryX=0.87;entryY=-0.119;entryDx=0;entryDy=0;entryPerimeter=0;" edge="1" parent="1" target="7PJYwHTWWEtQcOT2h8YD-91">
          <mxGeometry width="50" height="50" relative="1" as="geometry">
            <mxPoint x="220" y="671" as="sourcePoint" />
            <mxPoint x="12" y="676" as="targetPoint" />
          </mxGeometry>
        </mxCell>
        <mxCell id="RVpFAnCIKUoagwl025eZ-19" value="12. Retorna a confirmação para o organizador" style="text;html=1;align=center;verticalAlign=middle;whiteSpace=wrap;rounded=0;" vertex="1" parent="1">
          <mxGeometry y="680" width="220" height="30" as="geometry" />
        </mxCell>
        <mxCell id="RVpFAnCIKUoagwl025eZ-20" value="" style="endArrow=open;dashed=1;html=1;rounded=0;exitX=0.928;exitY=0.921;exitDx=0;exitDy=0;startArrow=none;startFill=0;endFill=0;exitPerimeter=0;" edge="1" parent="1" source="7PJYwHTWWEtQcOT2h8YD-91">
          <mxGeometry width="50" height="50" relative="1" as="geometry">
            <mxPoint x="-5" y="711" as="sourcePoint" />
            <mxPoint x="-240" y="710" as="targetPoint" />
          </mxGeometry>
        </mxCell>
        <mxCell id="RVpFAnCIKUoagwl025eZ-22" value="13. Exibe mensagem de Confirmação" style="text;html=1;align=center;verticalAlign=middle;whiteSpace=wrap;rounded=0;" vertex="1" parent="1">
          <mxGeometry x="-234" y="718.79" width="220" height="30" as="geometry" />
        </mxCell>
      </root>
    </mxGraphModel>
  </diagram>
</mxfile>
